<?xml version="1.0" encoding="UTF-8"?>
<svg id="Layer_1" data-name="Layer 1" xmlns="http://www.w3.org/2000/svg" viewBox="0 0 64 64">
  <path d="M43.65,61.25h-23.35s-.05-2.97-.05-2.97l-5.81-.02v-2.87s-2.89-.06-2.89-.06v-2.88s-2.9,0-2.9,0l-.03-2.88-2.89-.02-.02-5.82-2.95-.02v-23.34s2.95-.11,2.95-.11l.02-5.8,2.9-.02.03-2.88h2.89s0-2.9,0-2.9l2.88-.03.02-2.89,5.8-.02.11-2.97h23.27s.1,2.98.1,2.98l5.76-.02.07,2.89,2.88.07v2.86s2.9.03,2.9.03l.03,2.88h2.9s.02,5.84.02,5.84l2.95.02v23.34s-2.96.1-2.96.1v5.75s-2.91.09-2.91.09l-.03,2.87h-2.89s0,2.9,0,2.9l-2.89.03-.02,2.89-5.81.02-.09,2.96ZM40.7,55.39l.03-2.96h5.88s.02-2.89.02-2.89l2.88-.02v-2.88s2.91-.04,2.91-.04v-5.86s2.95-.03,2.95-.03v-17.4s-2.95-.02-2.95-.02v-5.88s-2.9,0-2.9,0l-.02-2.9h-2.88s0-2.9,0-2.9h-5.88s-.03-2.97-.03-2.97h-17.43s0,2.97,0,2.97h-5.89s0,2.9,0,2.9h-2.89s0,2.89,0,2.89l-2.91.04v5.86s-2.94.02-2.94.02v17.42s2.95,0,2.95,0v5.89s2.91,0,2.91,0v2.9s2.88,0,2.88,0l.04,2.91h5.86s.01,2.96.01,2.96h17.42Z"/>
  <path d="M23.3,46.63h-5.94s-.02-5.92-.02-5.92h2.95s0-5.83,0-5.83h2.96s0-5.85,0-5.85h2.86s.02-2.91.02-2.91h2.89s0-2.86,0-2.86h5.84s.02-2.98.02-2.98h5.84s-.03-2.93-.03-2.93h5.93s.02,5.92.02,5.92h-2.94s-.01,5.83-.01,5.83l-2.96.03v5.83s-2.86,0-2.86,0l-.02,2.91h-2.88s-.01,2.86-.01,2.86h-5.84s-.02,2.98-.02,2.98h-5.83s.03,2.92.03,2.92ZM29.12,29.12v5.83s5.76,0,5.76,0v-5.83s-5.76,0-5.76,0Z"/>
</svg>