<svg xmlns="http://www.w3.org/2000/svg" viewBox="-5 -5 110 110" aria-hidden="true">
  <path fill="#f4d03f" fill-rule="evenodd" d="m50 0c27.613 0 50 22.387 50 50s-22.387 50-50 50-50-22.387-50-50 22.387-50 50-50zm0 7.5c-23.473 0-42.5 19.027-42.5 42.5s19.027 42.5 42.5 42.5 42.5-19.027 42.5-42.5-19.027-42.5-42.5-42.5zm7.5 55.492 11.254 19.488c-5.5156 3.1914-11.922 5.0195-18.754 5.0195-6.8242 0-13.219-1.8242-18.734-5.0078l11.258-19.484c2.1992 1.2656 4.7539 1.9922 7.4766 1.9922 2.7305 0 5.293-0.73047 7.5-2.0078zm-7.5-22.992c5.5234 0 10 4.4766 10 10s-4.4766 10-10 10-10-4.4766-10-10 4.4766-10 10-10zm-18.758-22.477 11.254 19.484c-4.4805 2.5938-7.4961 7.4414-7.4961 12.992h-22.5c0-13.875 7.5391-25.992 18.742-32.477zm37.531 0.007812c10.809 6.2617 18.203 17.77 18.699 31.039l0.027344 1.4297h-22.5c0-5.543-3.0078-10.383-7.4766-12.98z"/>
</svg>
