<?xml version="1.0" encoding="UTF-8"?>
<svg id="Layer_1" xmlns="http://www.w3.org/2000/svg" version="1.1" viewBox="0 0 1366 3077">
  <!-- Generator: Adobe Illustrator 30.0.0, SVG Export Plug-In . SVG Version: 2.1.1 Build 123)  -->
  <defs>
    <style>
      .st0 {
        fill: #d9d9d9;
      }

      .st1 {
        fill: #aaa;
      }
    </style>
  </defs>
  <rect class="st0" x="807" y="1346" width="310" height="190"/>
  <rect class="st0" x="249" y="784" width="310" height="190"/>
  <rect class="st0" x="663" width="64" height="3072"/>
  <rect class="st0" x="249" y="258" width="310" height="190"/>
  <rect class="st0" x="807" y="2882" width="310" height="190"/>
  <rect class="st0" x="807" y="448" width="310" height="190"/>
  <rect class="st0" x="249" y="2444" width="310" height="190"/>
  <rect class="st0" x="249" y="1667" width="310" height="190"/>
  <rect class="st0" x="807" y="1989" width="310" height="190"/>
  <rect class="st1" x="826" y="2006" width="273" height="155"/>
  <rect class="st1" x="268" y="2461" width="273" height="155"/>
  <rect class="st1" x="826" y="2006" width="273" height="155"/>
  <rect class="st1" x="826" y="2006" width="273" height="155"/>
  <rect class="st1" x="826" y="2006" width="273" height="155"/>
  <rect class="st1" x="268" y="801" width="273" height="155"/>
  <rect class="st1" x="268" y="1684" width="273" height="155"/>
  <rect class="st1" x="826" y="2899" width="273" height="155"/>
  <rect class="st0" x="727" y="2048" width="80" height="131"/>
  <rect class="st0" x="249" y="1346" width="310" height="190"/>
  <rect class="st0" x="807" y="974" width="310" height="190"/>
  <rect class="st0" x="559" y="317" width="104" height="131"/>
  <rect class="st0" x="727" y="2946" width="80" height="131"/>
  <rect class="st0" x="559" y="2503" width="104" height="131"/>
  <rect class="st0" x="559" y="843" width="104" height="131"/>
  <rect class="st0" x="727" y="1405" width="104" height="131"/>
  <rect class="st0" x="703" y="1033" width="104" height="131"/>
  <rect class="st0" x="727" y="507" width="104" height="131"/>
  <rect class="st0" x="559" y="1726" width="104" height="131"/>
  <rect class="st0" x="559" y="1405" width="104" height="131"/>
  <rect class="st1" x="826" y="1363" width="273" height="155"/>
  <rect class="st1" x="268" y="1363" width="273" height="155"/>
  <rect class="st1" x="826" y="465" width="273" height="155"/>
  <rect class="st1" x="826" y="991" width="273" height="155"/>
  <rect class="st1" x="268" y="275" width="273" height="155"/>
</svg>